<svg xmlns="http://www.w3.org/2000/svg" width="1015" height="1015" viewBox="120 20 1015 1015" version="1.1" xml:space="preserve" style="fill-rule:evenodd;clip-rule:evenodd;stroke-linejoin:round;stroke-miterlimit:2;">
  <g>
    <path d="M570.3,873.02c-34.53,-2.82 -66.86,-10.04 -94.17,-20.94l-16.29,-6.49l-0.37,-4.41c-0.24,-2.57 2.94,-15.92 8.2,-34.41c9.8,-34.17 19.47,-71.52 27.68,-106.3c6.49,-27.55 14.08,-62.82 13.59,-63.31c-0.12,-0.24 -3.31,7.47 -6.86,17.02c-18.25,49.11 -47.64,107.77 -79.97,160.18c-16.53,26.7 -17.63,28.17 -21.31,28.17c-7.84,0 -36,-12.61 -52.41,-23.51c-12.37,-8.2 -32.33,-27.92 -35.88,-35.39c-5.27,-11.02 -4.04,-13.84 15.55,-32.45c62.7,-59.52 99.32,-118.54 130.54,-209.9c10.65,-31.59 21.92,-69.8 31.11,-106.3c12.37,-48.98 19.35,-65.39 34.78,-81.93l7.59,-7.96l16.53,0.61c18.37,0.73 20.45,1.22 45.92,11.51c18.12,7.35 29.27,9.31 38.58,6.86c3.67,-0.98 4.29,-1.71 4.65,-5.02c0.37,-3.67 0.73,-3.92 5.02,-3.92c3.92,0 5.76,1.1 12.12,6.74c13.59,12.37 23.63,28.78 33.92,55.11c1.84,4.78 6.12,14.21 9.55,21.06l6.25,12.49l3.55,-3.06c2.33,-1.96 5.02,-2.94 7.96,-2.94c4.41,0 4.53,-0.12 6.61,-7.1c1.1,-3.8 2.33,-12.49 2.45,-19.23c0.37,-10.29 0.98,-13.47 3.8,-19.59c4.9,-10.53 6.25,-11.63 13.84,-11.63c3.55,0 6.74,0.49 7.23,1.1c0.37,0.73 2.2,0.73 4.65,0c6,-1.71 19.59,-1.35 22.29,0.61c4.16,3.06 6.12,32.57 3.43,50.82c-1.71,11.63 -4.53,13.59 -18.61,13.59l-10.78,0l-0.73,3.43c-0.49,2.57 -1.96,4.04 -5.63,5.76c-2.82,1.22 -7.59,4.9 -10.53,8.2c-4.65,4.78 -6.37,5.88 -9.8,5.88l-4.29,0l0,-8.82c0,-4.78 -0.24,-8.45 -0.61,-8.08c-1.96,1.96 -7.84,49.35 -6.25,50.82c1.22,1.22 9.8,-3.67 15.06,-8.57c9.43,-8.69 11.76,-9.55 31.59,-10.29c23.39,-0.98 23.27,-1.1 24.25,15.19c0.37,6.61 0.12,18.86 -0.61,27.31c-1.1,13.59 -1.59,15.68 -4.29,18.49c-4.16,4.53 -14.7,7.23 -28.04,7.23c-6,0 -12.98,0.37 -15.43,0.73c-4.41,0.73 -4.65,1.1 -4.65,5.27c0,7.47 4.78,36.74 8.08,50.33c1.71,7.1 4.78,16.41 6.86,20.82c2.08,4.65 3.43,9.43 3.18,11.63l-0.37,3.67l-16.16,0.37c-15.19,0.24 -16.29,0.49 -16.29,2.69c0,1.22 4.41,28.17 9.8,59.64c13.23,76.78 15.19,87.56 20.94,115.97c2.69,13.47 4.78,25.84 4.53,27.55l-0.37,3.18l-29.39,0.73c-29.88,0.73 -42.74,2.45 -59.39,8.08c-3.06,1.1 -8.45,2.2 -11.88,2.45l-6.49,0.61l0,-8.45c0.12,-4.53 0.61,-13.84 1.22,-20.57c0.98,-10.9 2.57,-48 4.16,-92.46l0.49,-15.31l-4.04,22.66c-8.2,46.17 -18.25,91.97 -24.12,109.6l-1.59,4.9l-18.98,0.12c-10.41,0.12 -24.37,-0.24 -30.98,-0.86l0.01,0.02Zm71.03,-208.92c2.08,-1.59 5.63,-5.63 7.96,-8.94c4.65,-6.86 5.63,-7.1 23.63,-5.02c5.39,0.73 13.1,1.35 17.02,1.59l7.35,0.37l4.04,-13.47c11.39,-37.96 16.41,-83.4 12.37,-113.4l-1.47,-10.9l-6.74,0c-3.8,-0.12 -9.92,-0.86 -13.59,-1.71c-6,-1.35 -6.86,-1.96 -7.47,-5.14c-0.49,-1.96 -0.86,-2.57 -0.98,-1.35c-0.12,1.59 -1.22,2.08 -4.9,2.08l-4.65,0l-0.86,8.94c-1.22,12.49 -7.47,48.13 -11.76,66.62c-6.61,28.53 -14.33,53.52 -23.15,74.95c-2.08,5.02 -3.8,9.31 -3.8,9.55c0,0.73 2.2,-0.61 6.98,-4.16l0.02,-0.01Zm-72.74,-35.51c-19.72,-30 -36.74,-74.33 -45.07,-117.81l-1.71,-9.31l0.61,9.18c2.82,37.35 18.37,84.13 36.62,109.6c4.65,6.49 16.16,20.21 17.14,20.21c0.12,0 -3.31,-5.39 -7.59,-11.88l0,0.01Zm68.82,-132.87c2.94,-1.35 4.16,-3.43 2.08,-3.43c-1.71,0 -15.31,11.51 -15.92,13.47c-0.37,0.98 1.96,-0.49 5.02,-3.43c3.18,-2.82 7.1,-5.88 8.82,-6.61Z" style="fill:#fffefe;fill-rule:nonzero;"/>
    <path d="M762.93,647.94c0,-1.96 1.71,-7.96 3.8,-13.23c4.9,-12.12 8.08,-27.43 9.67,-47.39c0.61,-8.69 1.22,-16.29 1.22,-16.78c0,-1.96 8.2,-1.22 9.06,0.73c1.59,4.41 3.43,35.64 2.82,48.98c-0.86,17.39 -2.33,23.15 -6.98,27.8c-3.06,3.06 -4.29,3.43 -11.51,3.43l-8.08,0l0,-3.55l0,0.01Z" style="fill:#fffefe;fill-rule:nonzero;"/>
    <path d="M580.46,323.05c-30.25,-3.67 -27.31,-2.69 -26.57,-8.94c0.49,-5.14 0.49,-5.39 -1.96,-4.04c-5.27,2.69 -15.19,4.65 -24.74,4.65c-13.35,0 -15.31,-0.61 -15.31,-5.02c0,-3.18 -0.37,-3.55 -4.04,-3.55c-6.61,0 -15.43,-3.67 -20.57,-8.57c-3.8,-3.67 -4.78,-5.39 -4.78,-8.94c0,-3.92 0.49,-4.78 4.04,-6.25l3.92,-1.71l-4.29,-0.12c-11.39,-0.37 -23.27,-10.41 -23.27,-19.84c0,-4.41 0.12,-4.53 5.88,-5.27c8.82,-1.35 18.25,-6.37 22.53,-12.25c3.55,-4.9 3.67,-5.27 2.94,-15.43c-0.98,-14.45 0.86,-24.37 6.86,-36.74c4.16,-8.69 6.98,-12.37 16.78,-22.17c10.04,-10.04 13.47,-12.61 23.39,-17.39c13.72,-6.74 25.84,-9.43 41.88,-9.43c14.45,0 25.35,2.33 37.96,8.08c9.18,4.16 10.41,4.41 16.78,3.43c3.8,-0.61 10.78,-1.1 15.43,-1.1c10.53,0 14.82,2.57 19.47,11.88c2.82,5.51 3.18,7.84 3.18,18c-0.12,18 -5.88,28.29 -15.8,28.29l-4.9,0l0.24,-8.2c0.12,-4.65 -0.37,-9.31 -0.98,-10.41c-0.86,-1.35 -1.22,3.31 -1.22,14.7c0,18.74 0.73,20.82 9.8,27.68c3.8,2.94 4.29,3.92 4.29,8.82c0,3.06 -0.86,6.86 -1.96,8.45c-1.1,1.59 -3.8,10.78 -6.12,20.21c-2.33,9.55 -5.27,18.86 -6.61,20.82c-3.55,4.9 -10.65,7.35 -21.8,7.35c-5.76,0 -10.16,0.61 -11.02,1.47c-0.98,0.98 -1.47,5.63 -1.47,12.86l0,11.39l-9.43,-0.12c-5.27,-0.12 -18.12,-1.22 -28.53,-2.57l0,-0.02Z" style="fill:#fffefe;fill-rule:nonzero;"/>
    <path d="M733.79,236.23c0.37,-66.13 0.49,-71.27 2.57,-72.62c4.78,-3.55 34.78,-3.67 39.55,-0.24c1.71,1.35 1.96,8.82 2.08,72.74l0.24,71.27l-44.82,0l0.37,-71.15l0.01,0Z" style="fill:#fffefe;fill-rule:nonzero;"/>
  </g>
  <g>
    <path d="M748.6,900.7c-2.2,-0.98 -4.04,-2.33 -4.04,-2.94c0,-0.73 -1.71,-3.06 -3.8,-5.14c-3.55,-3.67 -3.8,-4.41 -3.31,-11.27c0.49,-6.37 1.1,-7.84 4.41,-10.78c2.94,-2.57 3.92,-4.53 3.92,-7.59c0,-2.2 0.49,-4.53 1.22,-5.27c0.73,-0.73 0.73,-2.57 0.12,-5.14c-0.73,-2.2 -1.59,-66.25 -1.96,-147.2l-0.86,-143.28l4.65,0c2.69,0 8.45,-0.37 13.1,-0.86l8.2,-0.73l0,39.19c0,32.82 -0.37,40.04 -1.96,43.84l-1.84,4.53l4.9,-0.49c4.53,-0.37 5.02,-0.12 5.02,2.33c0,1.84 -0.86,2.82 -2.69,3.06l-2.69,0.37l0.37,107.15c0.24,77.15 0.73,107.28 1.71,107.64c0.73,0.24 2.57,1.71 4.16,3.31c2.33,2.33 2.82,4.16 2.82,10.65c0,4.41 -0.61,8.33 -1.47,9.18c-0.86,0.86 -5.02,1.47 -10.16,1.47l-8.69,0l0.49,4.9c0.49,4.9 0.49,4.9 -3.55,4.9c-2.33,-0.12 -6,-0.86 -8.08,-1.84l0.01,0.01Z" style="fill:#eac578;fill-rule:nonzero;"/>
    <path d="M744.44,488.74l0.74,-32.58l25.22,-0.74l-0.74,32.58l-25.22,0.74Z" style="fill:#eac578;fill-rule:nonzero;"/>
    <rect x="744.56" y="352.69" width="25.72" height="33.06" style="fill:#eac578;fill-rule:nonzero;"/>
    <path d="M742.11,350.61c-0.98,-0.37 -2.57,-1.47 -3.31,-2.57c-1.96,-2.45 -2.08,-12.74 -0.12,-14.7c0.98,-0.98 6.86,-1.47 18.37,-1.47c15.43,0 16.9,0.24 18.12,2.33c2.33,4.41 1.47,11.76 -1.59,14.57c-2.57,2.45 -4.16,2.69 -16.29,2.57c-7.35,0 -14.21,-0.37 -15.19,-0.73l0.01,0Z" style="fill:#eac578;fill-rule:nonzero;"/>
    <path d="M734.15,328.93c-8.45,-2.08 -18.74,-7.84 -22.41,-12.74c-2.33,-3.06 -3.18,-5.76 -3.18,-9.8l-0.12,-5.76l14.7,0c11.14,0 14.57,0.37 14.45,1.59c-0.24,1.1 4.04,1.47 18.61,1.47c16.04,0 18.98,-0.24 18.98,-1.84c0,-1.47 2.45,-1.84 14.7,-1.84l14.7,0l0,5.39c0,6.98 -3.8,12.49 -12.25,17.63c-10.53,6.37 -16.65,7.59 -35.39,7.47c-9.18,0 -19.35,-0.73 -22.78,-1.59l-0.01,0.02Z" style="fill:#eac578;fill-rule:nonzero;"/>
    <path d="M746.4,157.24c-9.18,-5.02 -13.84,-12.49 -14.94,-24.12c-0.98,-10.53 1.71,-19.84 10.65,-37.23c4.04,-7.96 8.33,-18.61 9.67,-23.63l2.33,-9.18l11.02,-0.74l5.27,8.69c2.82,4.78 6.86,13.47 8.94,19.35c3.67,10.16 3.8,11.51 3.8,29.64c0,20.57 -0.73,23.39 -7.84,30.98c-4.65,5.02 -8.33,6.61 -17.27,7.47c-6.12,0.61 -8.82,0.24 -11.63,-1.22l0,-0.01Z" style="fill:#eac578;fill-rule:nonzero;"/>
  </g>
  <g>
    <path d="M750.07,899.97c-4.53,-2.82 -6.74,-5.76 -6.74,-8.69c0,-3.31 2.2,-2.69 4.16,1.35c1.1,2.08 3.55,4.04 5.88,4.78c3.31,1.1 3.55,1.1 1.71,-0.12c-1.35,-0.86 -3.8,-2.82 -5.51,-4.53l-3.18,-3.06l14.08,-0.61c7.72,-0.37 14.33,-0.49 14.57,-0.37c0.24,0.12 0,2.2 -0.37,4.65c-1.59,8.45 -15.8,12.25 -24.61,6.61l0.01,-0.01Z" style="fill:#dfb76c;fill-rule:nonzero;"/>
    <path d="M744.56,584.75c0,-6.98 0.37,-9.18 1.71,-9.18c1.84,0 3.18,3.67 3.18,9.18c0,5.51 -1.35,9.18 -3.18,9.18c-1.35,0 -1.71,-2.2 -1.71,-9.18Z" style="fill:#dfb76c;fill-rule:nonzero;"/>
  </g>
  <g>
    <path d="M576.79,1018.75c-66.86,-5.88 -134.71,-26.33 -191.04,-57.68c-20.21,-11.27 -50.21,-31.23 -50.21,-33.43c0,-0.98 3.55,-6.74 7.96,-12.74c4.41,-6.12 17.88,-25.84 30.13,-43.84c16.65,-24.86 22.66,-32.82 24.61,-32.82c3.06,-0.12 3.18,-0.24 18.61,-25.1c25.59,-41.15 41.64,-71.03 61.35,-114.5c8.08,-17.63 10.65,-22.17 12.74,-22.41c2.08,-0.37 2.57,0.24 2.57,3.06c0,8.45 -26.45,101.28 -42.13,148.18l-6.61,19.84l6.61,3.06c27.68,13.1 65.15,24.49 96.62,29.39c26.21,4.04 74.21,6 76.05,3.06c0.49,-0.86 1.71,-5.63 2.82,-10.78l1.96,-9.31l4.65,-0.37l4.53,-0.37l0,20.94l11.02,0l0,8.94c0,8.57 -3.06,44.33 -8.69,100.42l-2.82,27.8l-24.49,-0.12c-13.59,-0.12 -29.88,-0.61 -36.25,-1.22l0.01,0Z" style="fill:#bc1c22;fill-rule:nonzero;"/>
    <path d="M652.1,958.38c-0.49,-33.68 -0.61,-65.15 -0.37,-69.93l0.37,-8.45l13.72,-3.31c18.25,-4.41 31.84,-6 52.41,-6l17.14,0l10.29,49.35c5.63,27.06 11.88,56.09 13.84,64.41c1.96,8.2 3.43,15.92 3.18,17.02c-0.86,4.53 -62.09,15.19 -101.52,17.76l-8.2,0.61l-0.86,-61.48l0,0.02Z" style="fill:#bc1c22;fill-rule:nonzero;"/>
    <path d="M659.7,644.27c-9.92,-1.22 -18.37,-2.57 -18.74,-2.94c-0.37,-0.37 1.59,-7.47 4.29,-15.92c10.41,-32.08 20.33,-77.89 24.37,-113.52l0.98,-7.96l4.53,0.24c3.31,0.24 4.53,-0.24 4.53,-1.47c0,-0.98 0.49,-1.84 0.98,-1.84c2.33,0 7.47,3.18 7.96,5.02c0.37,1.35 3.31,2.45 10.04,3.67l9.55,1.71l-0.73,24.49c-1.1,33.92 -6.37,76.05 -12.86,102.13l-2.08,8.08l-7.35,0.24c-4.04,0.12 -15.43,-0.86 -25.47,-1.96l0,0.03Z" style="fill:#bc1c22;fill-rule:nonzero;"/>
    <path d="M607.16,360.65c-3.92,-0.98 -12.98,-4.16 -20.21,-7.23c-16.16,-6.61 -24.86,-9.18 -34.9,-10.29l-7.72,-0.86l0.12,-5.51c0.12,-3.06 0.73,-6.98 1.47,-8.82c1.35,-3.18 1.96,-3.43 7.84,-3.43c3.55,0 18.61,1.35 33.43,3.06c14.82,1.84 29.88,3.55 33.43,3.8c4.65,0.49 6.74,1.22 7.1,2.69c0.37,1.1 2.33,6.25 4.29,11.39c2.08,5.14 3.55,11.02 3.31,12.86l-0.37,3.55l-10.41,0.24c-5.76,0.12 -13.59,-0.61 -17.39,-1.47l0.01,0.02Z" style="fill:#bc1c22;fill-rule:nonzero;"/>
    <path d="M773.95,197.77c0,-18.12 0.12,-18.98 2.45,-18.98c2.33,0 2.45,0.86 2.45,18.98c0,18.12 -0.12,18.98 -2.45,18.98c-2.33,0 -2.45,-0.86 -2.45,-18.98Z" style="fill:#bc1c22;fill-rule:nonzero;"/>
  </g>
  <g>
    <path d="M633,1018.02c1.1,-2.08 2.94,-19.23 9.43,-89.15c3.55,-38.21 3.55,-42.25 1.1,-42.25c-0.98,0 -1.84,-0.98 -1.84,-2.33c0,-2.33 4.78,-3.8 13.23,-3.8c4.04,0 5.27,1.71 2.08,2.94c-2.2,0.73 -2.33,13.1 -0.98,87.44l0.73,46.78l6.86,0.24l6.86,0.12l-7.96,0.86c-4.41,0.49 -13.1,0.98 -19.35,1.1c-10.41,0.12 -11.14,0 -10.16,-1.96l0,0.01Z" style="fill:#981a1f;fill-rule:nonzero;"/>
    <path d="M768.56,1000.87c-0.37,-0.49 -0.73,-1.96 -0.73,-3.31c0,-2.33 -5.51,-28.53 -13.47,-63.92c-2.08,-8.94 -3.67,-18.74 -3.67,-21.8c0,-5.63 0,-5.63 4.16,-5.63c6.49,0 14.45,-3.43 19.47,-8.33c9.31,-8.94 10.53,-15.8 4.41,-25.35l-3.8,-6l-0.61,-100.54c-0.24,-55.23 -0.24,-102.62 0.24,-105.44c0.49,-3.67 1.59,-5.51 3.8,-6.74c4.16,-2.2 10.16,-11.02 12.37,-18.12c4.41,-14.7 3.18,-45.31 -2.82,-69.93c-2.94,-11.88 -3.06,-13.59 -1.84,-23.27c1.35,-10.29 1.47,-15.19 0.86,-33.43c-0.37,-10.53 -2.08,-14.21 -9.06,-18.61l-3.8,-2.45l-0.12,-17.63c0,-17.27 0,-17.51 3.06,-19.96c6.49,-5.02 9.55,-25.59 6.86,-45.92c-1.35,-9.8 -2.45,-12.61 -6.61,-15.92c-2.69,-2.08 -2.94,-3.31 -3.67,-19.84c-0.86,-17.51 -0.86,-17.63 2.2,-21.19c2.45,-2.82 3.06,-5.02 3.06,-9.92l0,-6.37l7.23,-3.43c12.61,-6.12 23.88,-19.96 20.82,-25.59c-2.08,-3.92 -7.84,-5.88 -17.02,-5.88l-8.57,0l0,-125.76l-3.06,-4.53c-4.16,-6.25 -4.04,-12.37 0.49,-18.61c7.84,-10.78 10.04,-27.55 5.76,-44.58c-3.06,-12.25 -14.08,-33.92 -21.06,-41.51c-5.76,-6.12 -6.25,-6.49 -8.2,-4.53c-1.1,1.1 -2.45,4.16 -3.06,6.61c-0.61,2.45 -1.96,8.45 -3.18,13.1c-1.1,4.78 -5.88,16.29 -10.53,25.72c-4.65,9.43 -8.82,19.23 -9.31,21.8c-1.22,7.1 0.49,14.7 5.02,22.29c3.92,6.49 5.88,15.31 3.43,15.31c-0.61,0 -2.2,1.84 -3.67,4.04c-2.82,4.04 -2.82,4.53 -2.82,45.19c0,22.53 -0.37,51.07 -0.86,63.19l-0.73,22.29l-8.69,0c-9.18,0 -12.98,1.59 -15.55,6.25c-2.82,5.39 8.57,18.61 21.31,24.98c6.25,2.94 6.98,3.8 6.98,7.23c0,4.16 3.8,13.35 6,14.7c0.86,0.61 1.35,6.74 1.35,17.76l0,16.9l-4.53,2.94c-8.57,5.63 -15.06,23.02 -15.06,40.66c0,4.16 -0.49,8.2 -0.98,8.82c-1.84,2.82 -10.41,6.74 -14.33,6.74c-3.92,0 -4.16,-0.37 -7.96,-9.43c-17.02,-41.27 -27.43,-59.03 -43.47,-73.84c-3.31,-3.06 -7.47,-6.86 -9.18,-8.57c-2.08,-1.96 -4.65,-7.35 -7.23,-14.94c-4.29,-12.74 -5.39,-14.33 -11.51,-15.55c-3.92,-0.86 -3.92,-0.86 -4.29,-8.94l-0.37,-8.08l8.33,-0.49c5.88,-0.24 10.16,-1.35 14.45,-3.55c9.06,-4.78 12.37,-10.16 16.04,-26.82c1.71,-7.72 4.65,-17.27 6.74,-21.06c1.96,-3.8 3.55,-7.84 3.55,-8.94c0,-0.98 -3.06,-5.14 -6.74,-9.18c-6.12,-6.61 -6.74,-7.84 -6.74,-12.74c0,-5.14 0.37,-5.63 4.41,-7.59c5.76,-2.69 13.23,-12.25 15.8,-20.21c5.02,-15.06 -2.94,-34.53 -17.02,-41.76c-4.04,-2.08 -6.12,-2.33 -12.25,-1.71c-20.82,2.33 -19.35,2.45 -28.53,-1.59c-20.33,-8.82 -38.7,-10.65 -58.17,-5.76c-18,4.53 -30.25,11.63 -44.82,25.72c-18.25,17.63 -26.21,35.51 -26.08,59.39c0.12,15.43 -0.86,18.25 -7.23,21.55c-1.96,0.98 -6.86,2.2 -10.9,2.69c-9.31,0.86 -13.1,4.16 -11.88,10.53c0.86,4.78 7.96,13.59 12.98,16.16c2.57,1.35 3.55,2.94 4.16,6.98c1.35,7.96 10.16,15.68 28.78,25.23c14.94,7.47 15.06,7.59 25.35,7.59l10.29,0l0,4.29c0,6.61 -5.02,15.06 -14.7,24.49c-19.84,19.35 -28.53,36.98 -40.41,81.8c-8.82,33.43 -11.14,41.51 -20.21,71.88c-22.17,73.84 -45.19,126.5 -74.7,170.83c-17.39,25.96 -30.13,41.15 -59.52,70.05c-14.7,14.57 -27.43,28.17 -28.17,30.13c-2.45,5.88 3.06,14.82 19.1,30.98c13.96,14.08 30.62,26.08 48.98,35.64c8.69,4.41 9.18,4.9 9.18,8.82c0,4.53 -9.55,19.59 -36,56.94c-7.1,10.04 -12.98,18.74 -12.98,19.23c0,5.14 -23.27,-12.98 -50.33,-39.19c-85.11,-81.8 -138.75,-192.02 -151.24,-310.32c-2.82,-26.94 -1.84,-83.76 1.84,-109.24c13.72,-93.44 49.72,-177.08 107.4,-249.82c13.59,-17.14 58.29,-61.72 75.44,-75.44c82.91,-66.01 173.77,-102.5 273.82,-110.09c28.78,-2.2 85.85,-0.98 107.4,2.33c92.58,14.33 169.12,48.74 244.19,110.09c17.63,14.33 55.96,53.03 68.7,69.19c58.41,74.46 93.07,150.87 107.64,237.82c5.39,32.45 6.74,52.05 5.88,89.15c-0.86,42.37 -5.02,73.11 -14.82,111.19c-36.74,141.44 -134.71,261.21 -265.37,324.4c-17.27,8.2 -42.74,18.49 -56.21,22.41c-3.67,1.1 -9.31,2.82 -12.49,3.8c-3.06,0.98 -6,1.47 -6.37,1.1l-0.03,-0.03Z" style="fill:#981a1f;fill-rule:nonzero;"/>
    <path d="M629.45,862.86c0,-9.18 0.73,-10.53 5.63,-10.53l4.16,0l0,8.57c0,7.72 -0.24,8.57 -2.45,8.57c-1.47,0 -2.45,-0.86 -2.45,-2.08c-0.12,-2.08 -0.12,-2.08 -1.71,0c-2.57,3.31 -3.18,2.57 -3.18,-4.53Z" style="fill:#981a1f;fill-rule:nonzero;"/>
  </g>
  <g>
    <path d="M629.946,860.55c-0.61,-2.45 0.12,-13.1 1.71,-25.72c1.35,-11.76 3.67,-30.62 5.02,-42.13c5.27,-45.8 5.02,-44.7 11.76,-44.7l4.04,0l-0.61,6.49c-0.24,3.43 -0.86,17.39 -1.22,30.86c-0.37,13.47 -1.22,34.9 -1.96,47.76c-1.47,24.37 -2.08,26.21 -7.47,26.33c-1.35,0 -2.2,0.98 -2.2,2.45c0,1.59 -0.86,2.45 -2.33,2.45c-1.84,0 -2.57,-0.98 -2.82,-3.92l-0.49,-4.04l-1.35,4.29l-1.22,4.29l-0.86,-4.41Z" style="fill:#86141a;fill-rule:nonzero;"/>
    <path d="M730.236,717.15c-1.96,-9.06 -3.06,-18.37 -3.06,-25.1l0,-7.84l5.27,0.37l5.14,0.37l0.86,6.74c0.37,3.67 0.73,11.51 0.86,17.51l0.12,10.65l-4.29,0c-3.43,0 -4.41,-0.49 -4.9,-2.69l-0,-0.01Z" style="fill:#86141a;fill-rule:nonzero;"/>
  </g>
  <g>
    <path d="M758.52,1003.2c0.37,-0.61 -0.86,-7.59 -2.82,-15.68c-1.84,-7.96 -8.08,-36.74 -13.72,-63.8l-10.29,-49.35l-13.47,0c-18.49,0 -30.74,1.71 -55.11,7.59c-11.39,2.82 -22.66,5.27 -24.74,5.63l-4.04,0.49l0,-9.43c0,-13.23 2.33,-25.23 4.78,-24.98c3.8,0.49 6.12,-1.59 6.86,-6.37c0.49,-2.57 1.35,-5.14 2.08,-5.51c0.86,-0.61 0.98,3.67 0.37,13.59l-0.86,14.45l2.82,-0.73c1.59,-0.37 5.39,-1.47 8.45,-2.45c17.27,-5.76 29.64,-7.35 59.39,-8.08c25.1,-0.61 29.39,-0.98 29.27,-2.57c-0.12,-0.98 -2.08,-11.76 -4.53,-23.88c-6.12,-30.74 -28.66,-159.08 -30.98,-176.59l-0.86,-6.49l16.53,0c9.06,0 16.78,-0.37 17.14,-0.73c0.49,-0.37 -0.73,-4.04 -2.69,-8.2c-6.25,-13.84 -13.84,-51.43 -14.94,-74.33l-0.37,-7.96l3.67,-0.73c2.08,-0.49 9.18,-0.86 16.04,-0.98c14.33,-0.12 24.12,-2.57 29.02,-7.23c3.06,-2.82 3.43,-3.92 2.82,-7.84c-0.49,-2.69 -0.24,-4.78 0.61,-5.39c0.86,-0.49 1.1,-2.94 0.73,-6.37c-0.37,-3.06 0,-6.86 0.73,-8.45c0.98,-2.2 0.86,-3.92 -0.86,-7.35c-1.47,-3.06 -1.71,-4.78 -0.86,-5.63c0.73,-0.73 1.35,-3.18 1.35,-5.39c0,-6.49 -3.8,-8.08 -16.78,-7.23c-22.29,1.59 -21.68,1.35 -31.84,10.65c-3.55,3.18 -8.45,6.49 -10.9,7.23c-4.16,1.47 -4.41,1.71 -3.55,5.76c5.51,29.27 0.49,80.82 -11.88,122.83c-2.08,7.1 -4.16,13.35 -4.65,13.96c-0.86,0.86 -21.92,-0.49 -38.58,-2.45c-4.78,-0.61 -5.02,-0.37 -9.43,6c-2.45,3.67 -7.1,8.33 -10.29,10.53c-5.63,3.67 -13.35,6 -14.82,4.53c-0.49,-0.49 0.37,-3.67 1.96,-7.23c1.47,-3.43 4.65,-11.27 7.1,-17.39c2.45,-6 4.53,-11.14 4.78,-11.39c0.12,-0.24 10.41,0.73 23.02,2.2c12.49,1.47 23.27,2.33 23.88,1.96c1.47,-0.98 4.16,-12.74 8.08,-35.27c4.29,-25.47 6.61,-47.64 7.59,-72.74l0.73,-22.29l-8.45,-2.08c-4.65,-1.1 -10.04,-2.45 -12.12,-2.94c-3.06,-0.73 -3.67,-1.47 -4.04,-5.02c-0.49,-5.39 -9.8,-62.09 -10.78,-65.76c-0.61,-2.2 -0.24,-2.82 1.59,-2.82c1.96,0 2.94,1.84 5.14,10.16c2.45,8.82 9.06,40.9 11.88,57.68l1.1,6.12l6.74,1.47c3.67,0.86 8.2,1.59 9.92,1.71c3.31,0 3.31,-0.12 4.16,-11.39c1.71,-23.51 3.18,-33.43 7.47,-48.25c1.22,-4.29 -1.35,-3.43 -7.47,2.2c-3.06,2.82 -5.76,4.9 -6.12,4.53c-0.24,-0.24 -2.82,-4.53 -5.51,-9.55c-5.14,-9.31 -6.37,-12.12 -17.02,-37.23c-8.69,-20.57 -14.94,-30.37 -26.57,-42c-10.9,-11.02 -13.35,-12.37 -12.12,-6.61c0.86,4.04 0.37,4.41 -11.14,6.25c-10.9,1.84 -22.04,-0.37 -40.9,-7.96c-23.39,-9.43 -27.19,-10.41 -41.64,-11.27l-12.86,-0.73l-7.59,8.08c-15.43,16.53 -22.41,32.94 -34.78,81.93c-18.74,74.21 -39.19,134.83 -60.37,179.16c-24.98,52.05 -54.98,92.46 -103.36,139.24c-7.47,7.23 -14.08,14.08 -14.82,15.43c-2.08,3.8 2.94,12 14.57,23.63c18.49,18.74 37.23,30.13 66.25,40.78l5.76,2.08l-23.39,34.53c-12.74,18.98 -26.82,39.31 -31.11,45.31c-4.16,5.88 -7.72,11.02 -7.72,11.27c0,1.1 30,20.45 42.74,27.55c7.47,4.16 13.59,7.84 13.59,8.2c0,0.86 -17.39,-8.82 -30.62,-17.14c-12.37,-7.72 -37.96,-25.35 -37.96,-26.21c0,-0.24 0.61,-1.1 1.22,-1.96c6.25,-7.35 50.82,-72.99 50.09,-73.6c-0.24,-0.12 -4.9,-2.69 -10.29,-5.51c-18.61,-9.92 -33.92,-20.94 -47.27,-34.29c-18.98,-18.98 -24.25,-30.25 -18.98,-40.29c0.98,-1.84 13.59,-14.94 28.04,-29.27c28.78,-28.41 41.64,-43.6 59.03,-69.56c29.51,-44.33 52.54,-96.99 74.7,-170.83c9.06,-30.37 11.39,-38.45 20.21,-71.88c11.88,-44.82 20.57,-62.46 40.41,-81.8c7.1,-6.98 14.7,-17.63 14.7,-20.82c0,-0.37 -4.65,-0.61 -10.29,-0.61c-10.29,0 -10.41,-0.12 -25.35,-7.72c-18.61,-9.43 -27.43,-17.14 -28.78,-25.1c-0.61,-4.04 -1.59,-5.63 -4.16,-6.98c-7.96,-4.16 -15.43,-16.41 -14.21,-23.76c0.98,-6.61 4.65,-9.43 13.1,-10.29c14.45,-1.59 18.98,-6.37 17.76,-18.49c-2.82,-27.8 13.47,-58.66 41.02,-77.52c26.94,-18.49 64.05,-21.43 95.52,-7.72l8.33,3.67l10.41,-1.84c5.76,-0.98 12.37,-1.47 14.45,-0.98c9.92,1.84 18.74,9.31 23.39,19.84c3.43,7.84 4.29,23.63 1.47,31.84c-2.57,7.96 -10.04,17.51 -15.8,20.21c-2.45,1.1 -4.41,2.94 -4.41,3.92c0,0.98 3.06,5.02 6.74,9.06c3.67,4.04 6.74,8.33 6.86,9.43c0.37,5.76 -0.61,10.04 -3.8,16.29c-1.96,3.67 -4.9,13.1 -6.61,20.82c-3.67,16.65 -6.98,22.04 -16.04,26.82c-4.29,2.2 -8.57,3.31 -14.45,3.55l-8.33,0.49l0.37,4.41c0.37,3.92 0.86,4.53 4.29,5.27c6.12,1.22 7.23,2.82 11.51,15.55c2.57,7.59 5.14,12.98 7.23,14.94c1.71,1.71 5.88,5.51 9.18,8.57c14.94,13.84 28.9,37.11 42.13,70.42c5.51,13.96 5.02,13.47 10.65,10.29c6.37,-3.8 6.61,-4.16 6.61,-12.98c0,-17.63 6.49,-35.02 15.06,-40.66l4.53,-2.94l0,-13.23c0,-8.33 -0.49,-13.47 -1.35,-14.08c-2.2,-1.35 -6,-10.53 -6,-14.7c0,-3.43 -0.73,-4.29 -6.86,-7.23c-18.74,-9.18 -27.92,-26.08 -18.98,-35.02c3.31,-3.31 4.29,-3.55 12.74,-3.55l9.06,0l0.73,-22.29c0.49,-12.12 0.86,-40.78 0.86,-63.43c0,-40.78 0,-41.39 2.69,-44.82c1.47,-1.96 3.18,-3.92 3.67,-4.29c0.61,-0.37 -0.86,-3.92 -3.18,-7.72c-4.9,-8.08 -6.25,-14.7 -5.27,-25.96c0.49,-6.61 1.96,-10.65 9.31,-25.35c4.78,-9.55 9.55,-21.19 10.65,-25.96c1.22,-4.65 2.57,-10.65 3.18,-13.1c1.35,-6 3.92,-8.33 8.94,-8.33c6,0 14.08,9.55 22.17,26.33c8.57,17.51 10.65,25.96 10.78,42.86c0,15.06 -1.84,22.17 -7.96,30.49c-1.96,2.69 -3.55,5.27 -3.55,5.88c0,0.49 1.35,2.94 3.06,5.39l3.06,4.53l0,125.76l8.57,0c9.31,0 14.94,1.96 17.14,6c4.9,9.31 -5.27,25.23 -20.94,32.82l-7.23,3.43l0,6.25c0,4.65 -0.73,7.23 -2.69,9.8c-2.57,3.31 -2.82,4.53 -2.33,17.51c0.37,13.1 0.61,14.21 3.31,16.41c4.16,3.31 5.39,6 6.86,15.92c3.18,21.8 -0.24,48 -6.98,53.27c-2.94,2.33 -3.06,2.94 -3.06,16.29l0.12,13.96l3.92,2.45c6.74,4.29 9.43,9.8 9.55,18.86c0,4.41 0,13.59 0.12,20.33c0,6.74 -0.49,15.31 -1.22,18.98c-0.98,5.63 -0.73,8.33 1.59,17.76c5.76,22.9 7.23,62.09 2.69,76.66c-2.2,7.1 -8.2,15.92 -12.37,18.12c-2.2,1.22 -3.31,3.06 -3.8,6.74c-0.49,2.82 -0.49,48.62 -0.12,101.89l0.61,96.87l3.92,6.37c3.31,5.14 3.92,7.59 3.92,13.35c0,8.08 -1.96,12.49 -8.57,18.86c-5.02,4.9 -12.98,8.33 -19.47,8.33c-5.14,0 -5.14,-0.37 -0.49,20.08c8.2,36.37 13.47,61.6 13.47,64.17c0,1.71 0.98,3.18 2.82,3.8c3.06,1.22 2.94,1.35 -7.59,4.29c-7.59,2.2 -9.06,2.33 -8.2,0.98l0.07,0.01Zm7.84,-106.79c2.08,-1.35 3.92,-3.18 3.92,-4.16c0,-0.86 1.35,-2.57 3.06,-3.67c4.16,-2.69 4.29,-9.43 0.24,-13.47c-1.59,-1.59 -3.43,-3.06 -4.16,-3.31c-0.98,-0.37 -1.47,-32.45 -1.71,-111.07l-0.49,-110.7l4.9,-1.71c9.43,-3.18 12.37,-9.31 13.59,-28.66c0.86,-12.25 -1.35,-42 -3.18,-45.31c-0.61,-0.98 -1.22,-1.22 -1.22,-0.49c-0.24,9.92 -3.06,35.39 -4.78,43.96c-2.69,12.98 -7.23,25.47 -8.82,24.49c-0.61,-0.49 -1.1,-17.14 -1.1,-39.43l0,-38.58l-2.69,0.73c-1.59,0.37 -5.76,0.73 -9.43,0.73l-6.61,0l0.98,152.34l0.86,152.34l-3.8,3.55c-2.08,1.84 -4.16,5.14 -4.53,7.23c-0.61,3.18 -0.12,4.53 3.06,7.72c2.08,2.08 3.8,4.41 3.8,5.14c0,1.59 7.1,4.65 11.02,4.78c1.71,0 4.9,-1.1 7.1,-2.45l-0.01,-0Zm-30,-200.1c-0.98,-9.06 -4.04,-12.98 -4.04,-5.39c0,4.41 1.84,16.41 3.43,21.8c1.35,4.9 1.71,-6.25 0.61,-16.41Zm30,-224.47l0.37,-12.61l-18.49,0l0,25.84l8.94,-0.37l8.82,-0.37l0.37,-12.49l-0.01,0Zm-35.88,-5.02c2.94,-3.31 7.72,-6.98 10.53,-8.2c3.67,-1.71 5.14,-3.18 5.63,-5.76l0.73,-3.43l10.9,0c10.53,0 11.14,-0.12 14.7,-3.67c3.06,-3.06 3.67,-4.53 3.18,-7.72c-0.37,-2.2 0,-5.51 0.86,-7.59c1.1,-2.45 1.22,-4.53 0.49,-6.61c-0.73,-1.84 -0.73,-4.41 0.12,-6.86c0.98,-2.94 0.86,-4.9 -0.12,-7.47c-0.86,-1.96 -1.35,-5.88 -1.22,-8.69c0.73,-10.9 -9.55,-13.23 -26.94,-6c-1.35,0.61 -2.2,0.12 -2.69,-1.59c-0.86,-3.18 -5.88,-3.43 -8.57,-0.37c-1.1,1.22 -3.55,5.39 -5.39,9.43c-2.94,6.37 -3.43,8.94 -3.67,20.21c-0.12,8.57 -0.86,14.45 -2.2,17.51c-1.96,4.65 -4.29,32.7 -2.69,32.7c0.37,0 3.31,-2.69 6.37,-5.88l-0.02,-0.01Zm36.13,-84.74l0,-25.72l-18.36,0l0,25.72l18.36,0Zm-135.69,-24c0.49,-0.37 -0.86,-4.65 -2.69,-9.43c-1.96,-4.9 -3.8,-9.8 -4.16,-10.9c-0.37,-1.47 -2.45,-2.2 -7.1,-2.69c-3.55,-0.37 -19.23,-2.08 -34.78,-3.92c-15.68,-1.84 -29.15,-3.06 -30.13,-2.69c-1.84,0.73 -4.9,8.94 -3.67,10.04c0.37,0.37 2.69,0.73 5.14,0.73c6.98,0 21.43,4.16 36.62,10.41c7.47,3.06 16.78,6.37 20.7,7.23c7.23,1.84 18.86,2.45 20.08,1.22l-0.01,-0Zm139.36,-13.35c2.45,-2.57 2.69,-3.43 1.47,-6.12c-1.35,-2.94 -1.71,-3.06 -14.82,-3.06c-14.7,0 -17.02,0.98 -15.55,6.74c1.1,4.29 4.41,5.39 16.16,5.39c8.94,0.12 10.16,-0.12 12.74,-2.94l0,-0.01Zm5.63,-19.59c8.45,-2.45 18.86,-9.06 22.17,-13.96c4.78,-7.1 4.29,-7.47 -9.92,-7.47l-12.74,0l-0.86,-7.96c-0.49,-4.41 -0.61,-34.41 -0.24,-66.62c0.49,-46.66 0.37,-59.15 -0.86,-60.86c-2.08,-2.69 -12.25,-4.16 -23.15,-3.31c-13.72,1.22 -12.49,-5.88 -12.86,71.03l-0.24,67.11l-12.61,0.61c-11.63,0.61 -12.49,0.73 -12.12,3.06c1.22,6.86 12.98,15.55 25.35,18.49c8.82,2.2 30.74,2.08 38.09,-0.12l-0.01,0Zm-161.16,-14.45c0,-7.23 0.49,-11.88 1.47,-12.86c0.86,-0.86 5.27,-1.47 11.02,-1.47c11.14,0 18.25,-2.45 21.8,-7.35c1.35,-1.96 4.29,-11.27 6.61,-20.82c2.33,-9.43 5.02,-18.61 6.12,-20.21c2.94,-4.53 2.45,-6 -3.43,-10.9c-2.94,-2.45 -6.61,-6.86 -8.08,-9.92c-2.45,-5.14 -2.57,-6.25 -1.35,-15.31c1.35,-9.8 0.61,-17.39 -2.33,-24.98c-1.71,-4.65 -0.86,-6.86 2.94,-6.86c5.88,0 11.14,11.02 10.29,21.68c-0.49,6.12 0.37,6.49 4.65,2.2c8.33,-8.33 10.41,-24.37 4.65,-35.88c-5.76,-11.63 -8.82,-12.61 -31.23,-10.65c-10.41,0.98 -10.65,0.86 -20.45,-3.55c-24.61,-11.14 -47.88,-10.65 -72.5,1.35c-9.92,4.78 -13.35,7.35 -23.39,17.39c-9.8,9.8 -12.61,13.47 -16.9,22.17c-5.88,12.12 -7.59,21.55 -6.12,33.19c1.1,9.43 0.12,14.21 -4.41,20.08c-3.67,4.9 -13.59,9.92 -21.68,11.14c-3.31,0.37 -5.88,1.1 -5.88,1.59c0,0.37 1.47,2.94 3.18,5.51c4.65,6.86 13.35,10.53 24.74,10.53c11.14,0 11.14,1.47 0.12,7.23c-4.29,2.2 -7.72,4.65 -7.47,5.51c0.61,2.69 9.18,9.18 14.7,11.02c3.06,1.1 8.57,1.96 12.12,1.96c7.1,0 7.84,0.86 3.92,4.41c-2.33,2.08 -2.33,2.33 -0.24,3.06c6.37,2.57 23.15,0.37 31.84,-4.16c4.04,-2.08 10.16,-2.82 10.16,-1.1c-0.12,0.49 -0.61,3.18 -1.1,6c-0.98,5.14 -0.98,5.27 2.82,5.76c11.14,1.71 42.49,5.39 47.64,5.51l5.76,0.12l0,-11.39l0.01,0Zm141.32,-175.85c0.49,-0.73 1.71,-1.35 2.69,-1.35c1.35,0 1.71,2.2 1.71,10.41c0,5.76 0.24,10.41 0.61,10.41c1.84,0 7.72,-3.8 10.53,-6.98c6.86,-7.35 7.84,-10.78 7.84,-27.31c0,-13.96 -0.37,-16.29 -3.8,-25.96c-4.78,-13.23 -13.35,-28.17 -16.04,-27.68c-1.22,0.24 -2.69,3.55 -4.16,9.55c-1.35,5.02 -5.63,15.68 -9.67,23.51c-8.45,16.53 -11.51,26.33 -10.29,33.43c1.47,9.31 6.61,16.41 14.57,20.57l3.67,1.84l0.73,-9.43c0.37,-5.27 1.1,-10.16 1.59,-11.02l0.02,0.01Z" style="fill:#751317;fill-rule:nonzero;"/>
    <path d="M570.79,886.49c-36.86,-2.82 -83.4,-14.45 -114.62,-28.53c-4.65,-2.2 -10.41,-4.78 -12.49,-5.76c-2.2,-0.86 -4.04,-2.33 -4.04,-2.94c0,-0.73 2.82,-9.55 6.12,-19.59c13.96,-41.39 26.94,-85.72 42.86,-146.1c0.86,-3.31 0.73,-4.04 -0.61,-3.43c-1.22,0.49 -1.1,-0.86 0.86,-5.14c3.43,-8.08 20.21,-51.68 23.88,-62.33c1.84,-5.39 3.67,-8.94 4.78,-8.94c2.57,0 2.33,2.33 -5.02,38.45c-10.78,53.88 -24.86,111.32 -41.15,168.26c-4.65,16.53 -8.08,30.49 -7.59,30.98c0.61,0.61 8.08,3.8 16.78,7.23c33.31,13.23 74.33,20.82 114.62,21.19l21.43,0.24l1.59,-4.9c8.08,-24 24.37,-105.07 31.47,-155.16c0.49,-3.92 1.35,-5.88 2.57,-5.88c1.47,0 1.71,3.67 1.59,22.41c-0.12,12.25 -0.49,27.55 -0.98,33.92l-0.73,11.63l-1.1,-10.78c-0.86,-10.16 -1.1,-10.65 -2.82,-8.2c-1.1,1.47 -2.33,6.86 -2.94,12c-0.61,5.27 -1.84,16.65 -2.94,25.35c-0.98,8.82 -2.94,25.47 -4.29,37.11c-3.06,26.57 -7.35,51.43 -9.8,57.56c-1.1,2.69 -1.47,2.69 -22.9,2.57c-12,-0.12 -27.55,-0.61 -34.53,-1.22Z" style="fill:#751317;fill-rule:nonzero;"/>
    <path d="M597.12,661.9c-5.27,-2.94 -12.61,-7.72 -16.16,-10.53c-39.8,-30.62 -64.17,-96.87 -64.17,-174.14c0,-16.65 0.12,-18.12 2.2,-17.76c1.59,0.37 2.33,2.2 3.06,9.55c7.96,79.72 35.64,147.69 76.54,187.98c5.76,5.76 9.92,10.41 9.31,10.41c-0.61,0 -5.51,-2.45 -10.78,-5.51Z" style="fill:#751317;fill-rule:nonzero;"/>
    <path d="M595.77,547.16c4.16,-13.59 13.23,-31.23 21.8,-42.49c5.88,-7.59 18.25,-17.27 22.17,-17.27c1.47,0 4.53,1.59 6.86,3.55l4.16,3.43l-6.12,3.18c-12.74,6.49 -29.64,23.63 -42.74,43.47c-3.18,4.78 -6.12,8.82 -6.37,8.82c-0.24,0 -0.12,-1.22 0.24,-2.69Z" style="fill:#751317;fill-rule:nonzero;"/>
    <path d="M622.84,463.27c-3.18,-3.92 -8.2,-12.25 -11.27,-18.37c-5.63,-11.63 -17.88,-46.66 -16.9,-48.37c2.94,-4.78 9.67,5.27 18.61,27.8c6.74,17.02 16.29,44.94 15.68,45.56c-0.24,0.37 -3.06,-2.69 -6.12,-6.61l0,-0.01Z" style="fill:#751317;fill-rule:nonzero;"/>
  </g>
</svg>
